<?xml version="1.0" encoding="utf-8"?>
<!-- Generator: Adobe Illustrator 25.2.0, SVG Export Plug-In . SVG Version: 6.00 Build 0)  -->
<svg version="1.1" id="Layer_1" xmlns="http://www.w3.org/2000/svg" xmlns:xlink="http://www.w3.org/1999/xlink" x="0px" y="0px"
	 viewBox="0 0 48 48" style="enable-background:new 0 0 48 48;" xml:space="preserve">
<style type="text/css">
	.st0{fill:#006699;}
</style>
<g id="Icons">
	<g id="Icons_15_">
		<g>
			<path class="st0" d="M23.6,25.5c0,0,1.4,0.3,4.2-0.8s2.7-3.1,2.7-3.1c-1.4,0.6-2.7-0.3-2.7-0.3l1.2-0.6c2.2-0.5,4.7-2.7,5.1-3.1
				s1.1-1.6-0.2-1.2c-1.3,0.5-2.8,0.1-2.8,0.1l0.8-0.7c3.8-2.3,4.5-4.6,3.8-5c-0.7-0.4-2.2,1-2.2,1c-17.1,10.5-19,24.7-19,24.7
				s-0.1,0.7,0.8,0.7C16.2,37.1,15.4,31.6,23.6,25.5z"/>
			<g>
				<path class="st0" d="M12.4,24.6c-0.2,0-0.4-0.2-0.4-0.3V19c0-1.8,1.4-3.2,3.2-3.2h5.2c0.2,0,0.4,0.2,0.4,0.3
					c0,0.2-0.2,0.3-0.4,0.3h-5.2c-1.4,0-2.5,1.1-2.5,2.5v5.2C12.8,24.4,12.6,24.6,12.4,24.6z"/>
			</g>
			<g>
				<path class="st0" d="M31.4,35.4h-5.5c-0.2,0-0.4-0.2-0.4-0.3c0-0.2,0.2-0.3,0.4-0.3h5.5c1.4,0,2.5-1.1,2.5-2.5v-5.2
					c0-0.2,0.2-0.3,0.4-0.3c0.2,0,0.4,0.2,0.4,0.3v5.2C34.5,34,33.1,35.4,31.4,35.4z"/>
			</g>
		</g>
	</g>
</g>
</svg>
