<?xml version="1.0" encoding="utf-8"?>
<!-- Generator: Adobe Illustrator 25.2.0, SVG Export Plug-In . SVG Version: 6.00 Build 0)  -->
<svg version="1.1" xmlns="http://www.w3.org/2000/svg" xmlns:xlink="http://www.w3.org/1999/xlink" x="0px" y="0px"
	 viewBox="0 0 50 50" style="enable-background:new 0 0 50 50;" xml:space="preserve">
<style type="text/css">
	.st0{display:none;}
	.st1{display:inline;fill:#333333;stroke:#000000;stroke-miterlimit:10;}
	.st2{fill:#0A85FF;}
	.st3{fill:#075DB2;}
</style>
<g id="Layer_2" class="st0">
	<rect x="-23.9" y="-14.3" class="st1" width="92.9" height="85.8"/>
</g>
<g id="Layer_1">
	<g>
		<path class="st2" d="M24.4,0h1.3c1,0.6,1.8,1.5,1.8,2.6c0,5.1,0,10.2,0,15.1c0,1.6-0.8,2.5-2.4,2.8c-0.2,0-0.4,0-0.6-0.1
			c-1.2-0.4-1.9-1.1-1.9-1.9C22.5,13,22.5,7.5,22.5,2C22.5,1.2,23.2,0.6,24.4,0z"/>
		<path class="st2" d="M50,24.4v1.3c-0.7,1.2-1.9,1.7-3.8,1.7c-14.1,0-28.2,0-42.2,0c-2.1,0-3.4-0.6-4-1.8v-1.4
			c0.7-1.1,2.1-1.7,4.2-1.7c14.4,0,28.8,0,43.2,0C48.6,22.5,49.4,23.1,50,24.4z"/>
		<path class="st2" d="M25.6,50h-1.3c-1.1-0.7-1.7-1.3-1.7-2c-0.1-5.4-0.1-10.8,0-16.5c0-0.9,0.6-1.5,1.9-2c0.2-0.1,0.5-0.1,0.8,0
			c1.5,0.4,2.2,1.3,2.2,2.8c0.1,5.3,0.1,10.5,0,15.6C27.5,48.8,26.8,49.4,25.6,50z"/>
	</g>
	<g>
		<circle class="st3" cx="11.2" cy="10.2" r="3.7"/>
		<circle class="st3" cx="39.2" cy="10.2" r="3.7"/>
		<circle class="st3" cx="11.2" cy="39.8" r="3.7"/>
		<circle class="st3" cx="39.2" cy="39.8" r="3.7"/>
	</g>
</g>
</svg>
